<svg xmlns="http://www.w3.org/2000/svg" version="1.1" xmlns:xlink="http://www.w3.org/1999/xlink" xmlns:svgjs="http://svgjs.dev/svgjs" width="1000" height="1000" viewBox="0 0 1000 1000"><rect width="1000" height="1000" fill="#046380"></rect><g transform="matrix(0.7,0,0,0.7,149.57575757575756,282.1265587044535)"><svg viewBox="0 0 396 247" data-background-color="#046380" preserveAspectRatio="xMidYMid meet" height="623" width="1000" xmlns="http://www.w3.org/2000/svg" xmlns:xlink="http://www.w3.org/1999/xlink"><g id="tight-bounds" transform="matrix(1,0,0,1,0.2400000000000091,-0.09999999999999432)"><svg viewBox="0 0 395.52 247.2" height="247.2" width="395.52"><g><svg></svg></g><g><svg viewBox="0 0 395.52 247.2" height="247.2" width="395.52"><g transform="matrix(1,0,0,1,75.54432000000001,68.44136076923077)"><svg viewBox="0 0 244.43135999999996 110.31727846153845" height="110.31727846153845" width="244.43135999999996"><g><svg viewBox="0 0 244.43135999999996 110.31727846153845" height="110.31727846153845" width="244.43135999999996"><g><svg viewBox="0 0 244.43135999999996 110.31727846153845" height="110.31727846153845" width="244.43135999999996"><g><svg viewBox="0 0 244.43135999999996 110.31727846153845" height="110.31727846153845" width="244.43135999999996"><g id="textblocktransform"><svg viewBox="0 0 244.43135999999996 110.31727846153845" height="110.31727846153845" width="244.43135999999996" id="textblock"><g><svg viewBox="0 0 244.43135999999996 110.31727846153845" height="110.31727846153845" width="244.43135999999996"><g transform="matrix(1,0,0,1,0,0)"><svg width="244.43135999999996" viewBox="3.450000047683716 -36.95000076293945 83.20000457763672 37.54999923706055" height="110.31727846153845" data-palette-color="#ffffff"><path d="M3.45-36.45L3.45-36.45 9.25-36.45 9.25 0 4.15 0 4.15-33.2Q4.15-33.25 3.98-33.98 3.8-34.7 3.65-35.5 3.5-36.3 3.45-36.45ZM32.65-36.95L32.65-36.95Q34.6-36.95 36.87-36.52 39.15-36.1 41.27-35.2 43.4-34.3 44.8-32.85L44.8-32.85 41.95-29.55Q40.4-30.8 39.05-31.58 37.7-32.35 36.25-32.75 34.8-33.15 32.65-33.15L32.65-33.15Q29.4-33.15 27.17-31.9 24.95-30.65 23.55-28.55 22.15-26.45 21.5-23.78 20.85-21.1 20.85-18.25L20.85-18.25Q20.85-15.6 21.45-12.95 22.05-10.3 23.37-8.13 24.7-5.95 26.82-4.65 28.95-3.35 32.1-3.35L32.1-3.35Q34.65-3.35 36.55-4.48 38.45-5.6 39.5-7.55 40.55-9.5 40.55-12.05L40.55-12.05 40.55-15.3 31.9-15.3 32.5-18.9 45.75-18.9 45.7-8.7Q45.7-6.55 45.85-4.35 46-2.15 46.15 0L46.15 0 43.4 0 41.8-3.8Q39.55-1.45 37.02-0.43 34.5 0.6 31.2 0.6L31.2 0.6Q27.25 0.6 24.3-0.88 21.35-2.35 19.37-4.93 17.4-7.5 16.45-10.8 15.5-14.1 15.5-17.8L15.5-17.8Q15.5-23.25 17.42-27.58 19.35-31.9 23.17-34.43 27-36.95 32.65-36.95ZM52.25-36.45L59.6-36.45 68.2-13.35Q68.7-12.05 69.09-10.78 69.5-9.5 69.9-7.95L69.9-7.95Q70.3-9.5 70.65-10.73 71-11.95 71.5-13.2L71.5-13.2 80.05-36.45 86.65-36.45 86.65 0 81.59 0 81.59-26.05Q81.59-26.95 81.67-27.8 81.75-28.65 81.8-29.65L81.8-29.65Q81.5-28.85 81.15-28 80.8-27.15 80.5-26.25L80.5-26.25 70.9 0.05 67.9 0.05 58.15-26.45Q57.85-27.25 57.52-28.1 57.2-28.95 56.95-29.65L56.95-29.65Q57.05-28.75 57.07-27.93 57.1-27.1 57.1-26.25L57.1-26.25 57.1 0 52.95 0 52.95-33.2 52.25-36.45Z" opacity="1" transform="matrix(1,0,0,1,0,0)" fill="#ffffff" class="wordmark-text-0" data-fill-palette-color="primary" id="text-0"></path></svg></g></svg></g></svg></g></svg></g><g></g></svg></g></svg></g></svg></g><g><path d="M106.42 42.398A122.216 122.216 0 0 1 289.1 42.398L279.151 42.398A112.267 112.267 0 0 0 116.369 42.398L106.42 42.398M106.42 204.802A122.216 122.216 0 0 0 289.1 204.802L279.151 204.802A112.267 112.267 0 0 1 116.369 204.802L106.42 204.802" fill="#ffffff" stroke="transparent" data-fill-palette-color="tertiary"></path></g></svg></g><defs></defs></svg><rect width="395.52" height="247.2" fill="none" stroke="none" visibility="hidden"></rect></g></svg></g></svg>