<?xml version="1.0" standalone="no"?>
<!DOCTYPE svg PUBLIC "-//W3C//DTD SVG 20010904//EN"
 "http://www.w3.org/TR/2001/REC-SVG-20010904/DTD/svg10.dtd">
<svg version="1.0" xmlns="http://www.w3.org/2000/svg"
 width="2000.000000pt" height="2000.000000pt" viewBox="0 0 2000.000000 2000.000000"
 preserveAspectRatio="xMidYMid meet">

<g transform="translate(0.000000,2000.000000) scale(0.100000,-0.100000)"
fill="#000000" stroke="none">
<path d="M10190 19956 c0 -31 2 -34 41 -40 23 -4 56 -13 74 -20 29 -12 34 -21
40 -58 6 -41 -49 -812 -62 -868 -17 -71 -69 -110 -148 -110 -33 0 -35 -2 -35
-35 l0 -35 118 0 c64 0 160 -7 212 -15 137 -21 140 -21 140 15 0 17 -6 32 -12
34 -133 38 -148 54 -148 158 0 78 48 719 54 726 2 1 151 -214 332 -478 181
-265 337 -490 347 -501 10 -10 31 -19 46 -19 l29 0 7 108 c19 314 67 882 77
915 15 51 57 79 125 85 46 4 54 8 59 28 10 39 -2 44 -114 44 -59 1 -138 5
-177 10 -38 5 -94 13 -122 16 l-53 7 0 -30 c0 -28 5 -32 60 -52 77 -28 90 -47
90 -136 0 -74 -28 -475 -36 -512 -5 -25 4 -36 -310 429 -85 125 -166 251 -180
281 l-27 54 -111 1 c-61 0 -155 8 -208 16 -54 9 -100 16 -103 16 -3 0 -5 -15
-5 -34z"/>
<path d="M9217 19938 c-15 -16 -79 -186 -196 -528 -96 -278 -185 -527 -198
-554 -21 -42 -33 -52 -84 -75 -47 -21 -59 -30 -59 -49 0 -33 16 -35 116 -18
49 9 140 16 202 16 110 0 112 0 112 23 0 35 -12 44 -63 49 -48 6 -87 30 -87
55 0 24 72 238 83 249 12 12 229 34 325 34 l53 0 59 -125 c33 -69 57 -131 54
-139 -5 -13 -38 -32 -97 -55 -23 -9 -27 -15 -21 -34 3 -12 8 -24 10 -26 3 -3
64 3 137 12 72 9 192 20 265 23 l133 7 -3 26 c-3 23 -10 28 -58 39 -30 7 -63
21 -72 30 -9 9 -130 244 -268 522 -139 278 -259 513 -267 523 -22 23 -49 21
-76 -5z m132 -669 c1 -12 -13 -18 -60 -23 -88 -9 -199 -8 -199 2 0 7 81 244
106 312 6 16 153 -262 153 -291z"/>
<path d="M7845 19749 c-120 -16 -235 -48 -307 -86 -135 -71 -255 -233 -294
-398 -33 -142 -4 -333 72 -462 40 -70 149 -174 224 -215 106 -58 162 -73 275
-72 160 2 351 68 483 169 83 63 89 76 64 151 -11 32 -28 99 -37 147 -19 102
-13 122 49 151 35 16 43 35 31 69 -5 11 -31 7 -143 -25 -75 -21 -187 -48 -249
-60 -102 -19 -113 -23 -113 -42 0 -34 12 -41 69 -41 46 0 56 -4 72 -25 25 -33
83 -261 76 -292 -4 -14 -24 -34 -49 -48 -38 -22 -55 -25 -143 -25 -116 0 -154
15 -236 92 -130 121 -217 367 -206 583 7 148 53 226 167 279 74 34 218 42 286
16 55 -21 136 -84 160 -125 14 -23 25 -30 49 -30 58 0 63 11 37 87 -13 37 -37
101 -54 141 l-30 72 -91 -1 c-51 -1 -123 -6 -162 -10z"/>
<path d="M12420 19658 c-12 -13 -159 -203 -328 -423 -168 -220 -324 -421 -346
-447 -41 -51 -79 -68 -148 -68 -32 0 -39 -4 -44 -26 -9 -34 0 -39 101 -53 46
-6 132 -27 191 -46 60 -19 109 -33 110 -32 1 1 5 14 9 29 6 24 3 29 -20 38
-54 21 -85 50 -85 80 0 34 142 230 166 230 23 0 338 -80 346 -88 9 -9 38 -200
38 -252 0 -35 -4 -42 -27 -51 -15 -6 -45 -9 -67 -7 -31 2 -41 -1 -47 -17 -15
-40 -10 -43 132 -70 78 -14 191 -42 251 -61 125 -39 134 -40 142 -18 12 30 6
40 -39 62 -24 12 -51 32 -59 44 -9 15 -42 219 -91 563 -89 634 -83 602 -102
620 -21 22 -59 18 -83 -7z m-81 -512 c12 -87 20 -161 17 -163 -11 -12 -258 55
-254 69 8 23 203 267 209 260 3 -4 16 -78 28 -166z"/>
<path d="M6015 19159 c-55 -32 -124 -68 -152 -81 -60 -25 -59 -22 -38 -134 20
-111 75 -614 75 -698 0 -14 -17 -4 -67 41 -53 46 -410 338 -571 467 -23 19
-24 19 -60 -3 -53 -32 -243 -126 -280 -139 -34 -12 -40 -28 -19 -54 11 -15 17
-15 74 0 55 15 65 15 78 2 14 -14 320 -679 372 -807 22 -56 23 -63 10 -90 -9
-16 -38 -50 -66 -76 -46 -43 -50 -49 -39 -72 6 -14 14 -25 18 -25 3 0 57 29
120 65 62 35 160 84 216 107 57 24 104 48 104 54 0 5 -6 18 -13 28 -12 17 -19
17 -83 6 -93 -16 -114 -12 -138 29 -17 30 -265 572 -287 629 -5 12 -7 22 -5
22 2 0 169 -135 371 -300 202 -165 374 -300 381 -300 7 0 21 12 31 27 17 25
16 43 -16 422 -18 218 -35 416 -37 441 l-5 45 23 -27 c39 -46 328 -585 328
-613 0 -16 -15 -42 -39 -68 -38 -41 -39 -43 -25 -70 8 -15 18 -26 22 -24 4 2
52 31 107 63 55 32 149 80 210 106 60 26 111 52 113 57 2 6 -1 19 -7 30 -10
17 -18 19 -66 14 -87 -9 -68 -34 -360 482 -103 182 -189 345 -192 363 -5 27 0
37 29 65 29 28 33 36 25 55 -6 12 -17 22 -26 21 -9 0 -61 -27 -116 -60z"/>
<path d="M13981 19133 c-11 -25 -10 -29 10 -43 50 -33 79 -63 79 -82 0 -11
-79 -162 -176 -336 -251 -452 -281 -501 -311 -508 -24 -6 -87 -1 -149 11 -26
6 -32 3 -42 -20 -12 -25 -11 -27 35 -47 111 -47 253 -118 316 -156 37 -23 72
-42 77 -42 6 0 15 11 21 24 10 21 6 28 -41 72 -88 82 -88 83 -22 206 136 253
307 547 310 533 3 -15 -33 -786 -42 -893 -4 -44 -2 -54 14 -62 33 -18 84 13
213 128 406 360 520 455 513 426 -10 -39 -274 -605 -293 -625 -19 -22 -53 -28
-103 -19 -42 8 -55 0 -62 -33 -2 -14 22 -29 120 -72 67 -29 165 -80 218 -111
92 -55 97 -57 110 -39 20 27 18 33 -21 76 -38 42 -40 54 -24 114 11 40 339
779 362 815 15 25 55 38 87 29 41 -12 46 -10 59 17 6 15 10 28 9 29 -2 2 -67
32 -144 68 -78 35 -152 72 -165 80 -23 16 -25 15 -163 -121 -143 -140 -458
-423 -464 -417 -2 2 4 146 12 322 9 175 17 365 19 422 l2 104 -81 36 c-44 20
-122 60 -173 89 -50 28 -93 52 -95 52 -1 0 -8 -12 -15 -27z"/>
<path d="M4424 18318 c-118 -91 -206 -153 -281 -197 -63 -37 -71 -46 -63 -61
16 -30 26 -32 81 -16 61 18 74 13 122 -46 52 -65 450 -646 483 -704 l28 -52
-29 -41 c-17 -23 -34 -48 -40 -56 -7 -11 -4 -20 10 -34 20 -20 21 -20 128 64
60 47 155 112 212 146 l104 61 -16 25 c-13 19 -22 23 -42 19 -14 -4 -44 -9
-67 -12 -39 -6 -42 -4 -81 42 -56 69 -477 681 -499 726 l-17 37 29 42 c16 23
33 48 39 55 7 10 4 20 -11 34 l-21 21 -69 -53z"/>
<path d="M16065 17899 c-22 -12 -227 -126 -455 -254 -586 -329 -543 -310 -635
-278 -48 16 -49 16 -67 -7 l-19 -23 89 -57 c49 -32 126 -90 170 -129 l81 -71
16 24 c16 23 15 26 -19 71 -44 57 -45 76 -6 108 30 25 202 127 214 127 11 0
288 -213 292 -225 7 -18 -66 -260 -83 -272 -18 -14 -51 -9 -96 14 -30 15 -42
12 -57 -17 -9 -17 5 -29 117 -107 70 -48 165 -120 211 -160 46 -40 87 -73 91
-73 4 0 13 11 20 24 12 21 9 28 -23 70 -20 26 -36 53 -36 60 0 7 67 262 150
567 82 305 150 564 150 575 0 45 -51 61 -105 33z m-210 -261 c-2 -7 -20 -74
-40 -148 -20 -74 -40 -145 -45 -158 l-10 -23 -58 40 c-31 22 -79 60 -106 84
l-50 43 155 87 c85 47 155 86 156 87 1 0 0 -6 -2 -12z"/>
<path d="M3715 17799 c-39 -39 -125 -116 -193 -171 -116 -96 -122 -102 -108
-122 16 -24 23 -24 88 0 41 16 49 17 74 4 26 -14 264 -275 264 -289 0 -14
-303 -281 -318 -281 -5 0 -52 48 -103 107 -177 201 -180 208 -134 275 30 45
31 50 5 73 -20 18 -22 16 -122 -81 -57 -55 -142 -130 -190 -168 -49 -38 -88
-71 -88 -73 0 -14 23 -43 34 -43 7 0 34 9 59 20 38 17 50 18 72 8 22 -10 452
-485 582 -643 68 -84 70 -89 34 -147 -36 -58 -36 -56 -15 -80 16 -17 22 -13
118 80 56 53 143 129 194 167 50 39 91 75 92 81 0 6 -9 19 -19 28 -18 16 -21
16 -60 -3 -51 -27 -72 -26 -106 1 -30 24 -275 297 -275 307 0 12 305 281 319
281 9 0 247 -268 273 -308 24 -37 23 -51 -11 -105 -29 -45 -30 -46 -12 -69
l19 -23 104 101 c58 55 143 129 189 164 46 35 88 66 92 70 4 4 -2 18 -13 33
l-21 26 -48 -25 c-27 -13 -52 -24 -57 -24 -4 0 -22 11 -41 26 -39 30 -562 617
-599 674 -29 43 -27 58 12 116 l25 37 -23 24 -23 23 -70 -71z"/>
<path d="M16842 17287 l-21 -20 25 -48 c13 -27 24 -56 24 -66 0 -19 -613 -638
-673 -680 l-37 -26 -52 32 -51 32 -23 -23 -23 -23 92 -84 c51 -47 191 -186
312 -310 121 -124 222 -225 225 -224 3 2 70 36 148 76 l144 74 -24 27 -24 28
-52 -17 c-69 -23 -161 -17 -227 15 -29 14 -84 57 -132 105 -65 65 -83 88 -83
111 0 24 49 78 323 351 208 208 332 324 349 328 20 5 40 0 75 -19 l47 -27 21
23 21 23 -182 181 -182 182 -20 -21z"/>
<path d="M2260 16380 c-11 -11 -20 -29 -20 -40 0 -11 116 -251 257 -534 195
-390 257 -523 256 -549 -1 -19 -10 -55 -21 -80 -19 -43 -19 -46 -3 -61 10 -9
22 -16 28 -16 6 0 35 35 64 78 29 42 88 113 131 158 l77 80 -21 21 -20 21 -45
-34 c-80 -61 -102 -46 -187 124 l-47 93 116 140 c65 76 124 139 133 139 9 0
72 -18 139 -41 88 -29 124 -46 128 -59 3 -10 -4 -42 -16 -71 l-23 -52 24 -19
c13 -10 26 -15 30 -11 4 4 40 53 80 108 40 55 115 146 167 202 l94 102 -24 16
c-24 15 -27 14 -73 -15 -26 -16 -58 -30 -71 -30 -12 0 -269 79 -570 175 -300
96 -550 175 -555 175 -4 0 -17 -9 -28 -20z m404 -360 c86 -28 156 -56 156 -61
0 -14 -87 -123 -133 -168 l-36 -34 -75 152 c-75 148 -80 161 -72 161 3 0 75
-23 160 -50z"/>
<path d="M17595 16099 c-187 -19 -385 -152 -474 -318 -52 -97 -74 -199 -69
-315 6 -122 28 -192 95 -290 67 -98 194 -220 283 -272 84 -50 126 -56 156 -23
27 31 156 125 198 146 39 18 62 12 106 -29 12 -12 28 -17 39 -13 46 14 41 28
-43 131 -45 56 -115 149 -155 208 l-72 106 -24 -16 c-30 -20 -30 -15 -5 -61
39 -74 25 -97 -133 -215 -53 -39 -88 -58 -108 -58 -40 0 -89 46 -130 122 -30
57 -33 71 -33 143 1 92 23 166 75 242 77 113 244 247 384 307 89 38 205 43
270 11 55 -27 114 -91 155 -166 33 -60 35 -70 35 -159 0 -87 -3 -100 -31 -157
l-32 -62 19 -30 c10 -17 24 -31 30 -31 6 0 58 47 117 104 l106 104 -48 98
c-64 133 -161 277 -233 345 -120 115 -290 168 -478 148z"/>
<path d="M9785 15853 c-306 -14 -614 -49 -873 -98 -1391 -262 -2638 -1020
-3520 -2140 -717 -911 -1138 -1995 -1234 -3180 -15 -193 -15 -677 0 -870 115
-1412 696 -2688 1676 -3679 999 -1011 2296 -1612 3726 -1727 319 -26 815 -14
1150 27 1297 159 2487 737 3416 1659 1304 1294 1922 3112 1678 4935 -208 1556
-1029 2957 -2289 3905 -747 562 -1636 942 -2560 1094 -378 62 -829 91 -1170
74z m405 -1820 c0 -49 -7 -308 -15 -578 -19 -624 -19 -625 -1 -625 19 0 23 59
36 520 5 206 13 438 16 514 l7 139 95 -6 c52 -4 97 -9 99 -11 2 -2 -5 -132
-16 -288 -25 -340 -25 -338 -6 -338 8 0 15 5 15 10 0 42 42 515 46 519 3 3 28
-7 57 -23 348 -192 627 -580 718 -1000 21 -94 28 -106 67 -106 41 0 175 -50
225 -83 56 -38 82 -84 68 -120 -24 -62 -183 -142 -305 -154 l-62 -6 -17 -182
c-35 -373 -95 -609 -222 -870 -199 -409 -488 -670 -821 -740 -90 -19 -264 -19
-354 0 -400 84 -747 459 -925 998 -70 212 -125 535 -125 730 l0 64 -64 6
c-124 12 -283 92 -307 154 -14 37 14 87 69 122 50 32 185 81 224 81 38 0 46
12 63 94 68 328 259 653 505 860 81 68 207 153 215 144 2 -2 11 -95 19 -208
21 -272 24 -290 43 -290 13 0 14 10 9 63 -14 148 -39 558 -34 562 3 3 50 8
105 12 l99 6 18 -584 c10 -321 19 -586 21 -588 2 -2 11 -1 20 3 13 5 15 19 10
83 -3 43 -9 276 -15 518 -5 242 -13 495 -16 563 l-6 122 221 0 221 0 0 -87z
m-1201 -3276 c26 -117 167 -384 379 -718 l107 -169 167 0 167 0 5 43 c3 23 8
80 10 127 l6 85 -54 37 c-67 46 -130 138 -147 213 -7 30 -10 58 -7 61 3 3 34
-5 69 -16 192 -65 386 -65 575 0 31 11 59 20 62 20 12 0 -10 -96 -34 -142 -28
-55 -119 -152 -154 -163 -18 -6 -20 -12 -16 -48 3 -23 8 -81 12 -130 l6 -87
176 2 176 3 119 170 c232 332 401 628 414 725 l6 42 68 -6 c215 -22 497 -126
704 -260 229 -149 452 -393 566 -618 l29 -58 335 0 c376 0 392 -3 480 -75 57
-46 104 -141 106 -210 1 -32 -109 -574 -314 -1535 -173 -817 -318 -1507 -322
-1535 -14 -114 -103 -225 -208 -262 -50 -17 -157 -18 -2477 -18 -2320 0 -2427
1 -2477 18 -105 37 -194 148 -208 262 -4 28 -149 718 -322 1535 -205 964 -315
1503 -315 1535 3 70 50 164 107 210 88 73 104 75 484 75 l339 0 53 92 c245
426 656 724 1134 824 61 12 126 23 146 23 35 1 36 0 48 -52z m3751 -4622 c91
-47 96 -181 7 -235 -32 -20 -72 -20 -2745 -20 -2430 0 -2716 2 -2743 15 -42
22 -69 71 -69 125 0 52 18 83 64 111 30 19 91 19 2744 19 2376 0 2717 -2 2742
-15z"/>
<path d="M9080 12323 c0 -43 5 -118 10 -167 6 -49 9 -91 7 -93 -3 -2 -20 5
-38 16 -34 20 -120 54 -124 49 -6 -6 26 -204 46 -290 177 -759 725 -1205 1258
-1023 375 127 677 543 786 1079 21 105 58 416 51 424 -2 1 -38 -38 -81 -88
-43 -49 -78 -90 -79 -90 0 0 -1 37 -1 83 0 45 -6 103 -14 130 l-14 47 -903 0
-904 0 0 -77z"/>
<path d="M6924 9806 c-120 -38 -212 -156 -214 -273 0 -23 140 -680 311 -1460
171 -780 317 -1452 324 -1494 8 -42 20 -92 29 -112 24 -58 90 -121 159 -153
l62 -29 2360 -3 c1476 -1 2383 1 2423 7 81 13 143 44 193 99 49 53 66 92 84
191 7 42 154 715 325 1496 338 1539 328 1482 281 1574 -29 56 -87 112 -147
142 l-49 24 -3050 2 c-2464 1 -3058 -1 -3091 -11z m3119 -1617 c83 -23 134
-99 124 -185 -9 -84 -80 -146 -167 -146 -87 0 -158 62 -167 146 -10 84 34 153
113 181 48 17 50 17 97 4z"/>
<path d="M1555 15238 c-102 -36 -211 -145 -299 -300 -33 -57 -98 -163 -144
-237 -80 -126 -84 -135 -67 -147 26 -19 35 -18 64 10 60 55 71 58 128 32 61
-29 679 -395 742 -440 64 -45 68 -56 48 -117 -15 -49 -15 -53 1 -65 9 -8 22
-14 29 -14 6 0 40 53 74 118 35 64 96 168 137 231 69 107 73 116 56 128 -28
20 -37 16 -82 -33 -38 -43 -44 -46 -78 -41 -42 7 -354 186 -354 203 0 29 34
37 213 45 311 15 381 34 483 130 50 48 134 161 149 202 4 10 -2 21 -19 32 -26
17 -27 17 -69 -22 -27 -25 -67 -48 -108 -62 -70 -24 -298 -50 -438 -51 l-84 0
6 36 c14 84 -34 215 -103 284 -78 78 -194 110 -285 78z m71 -263 c82 -40 150
-104 166 -157 9 -31 8 -45 -6 -82 -24 -64 -69 -109 -98 -101 -34 10 -275 155
-316 190 -33 30 -34 32 -23 66 16 50 67 107 104 118 46 13 93 4 173 -34z"/>
<path d="M18638 15079 c-14 -8 -16 -20 -12 -72 5 -56 3 -66 -24 -107 -16 -25
-185 -247 -375 -495 -191 -247 -347 -458 -347 -467 0 -26 52 -35 293 -49 119
-7 217 -15 217 -18 0 -3 -65 -91 -145 -196 -80 -104 -145 -195 -145 -201 0
-36 23 -38 489 -46 508 -9 723 -20 774 -41 19 -8 49 -33 68 -55 32 -39 34 -40
61 -26 l28 14 -64 123 c-36 67 -77 154 -92 192 -15 39 -30 74 -34 78 -4 4 -19
2 -34 -4 -20 -10 -25 -17 -20 -33 26 -81 25 -110 -8 -127 -18 -10 -714 -4
-766 7 -15 3 -22 10 -19 18 3 8 51 73 107 145 l101 131 167 -6 c92 -3 199 -10
237 -16 64 -10 74 -14 118 -59 44 -43 51 -47 73 -37 13 6 24 14 24 18 0 3 -31
67 -68 141 -37 74 -80 162 -94 197 -26 61 -27 62 -53 50 -22 -10 -25 -16 -19
-37 5 -14 8 -48 9 -76 l0 -50 -40 -7 c-48 -9 -257 2 -253 13 2 4 41 55 87 113
91 116 109 125 151 81 27 -28 39 -31 64 -12 17 13 15 20 -36 113 -30 55 -76
152 -103 217 -28 64 -56 117 -63 117 -7 0 -22 -4 -32 -10 -16 -8 -17 -15 -8
-50 9 -35 7 -46 -16 -92 -14 -29 -97 -145 -183 -257 l-157 -204 -120 7 c-66 3
-123 9 -127 14 -7 7 409 553 468 614 35 36 75 37 100 2 18 -24 22 -25 44 -14
13 7 25 14 27 15 2 2 -24 53 -57 114 -32 61 -81 163 -107 226 -26 63 -53 115
-58 115 -6 0 -19 -5 -28 -11z"/>
<path d="M980 14101 c-147 -31 -232 -134 -349 -423 -44 -106 -95 -227 -114
-269 -26 -57 -32 -80 -24 -88 21 -21 46 -11 90 36 l45 47 43 -13 c67 -20 788
-319 837 -347 45 -27 50 -42 33 -115 -8 -34 -6 -38 17 -48 14 -7 28 -8 32 -4
4 4 22 49 40 98 18 50 65 167 105 260 94 219 109 269 108 375 0 72 -4 95 -28
148 -80 179 -318 241 -467 122 -43 -35 -48 -36 -48 -10 0 38 -41 127 -72 158
-60 57 -169 90 -248 73z m54 -271 c72 -27 131 -85 139 -136 7 -42 -25 -152
-54 -182 -20 -22 3 -29 -301 98 -88 36 -90 39 -57 122 49 125 126 152 273 98z
m527 -169 c119 -45 173 -123 150 -216 -18 -72 -68 -165 -89 -164 -9 0 -100 35
-202 78 -207 87 -204 84 -175 170 19 57 76 128 119 147 40 19 125 12 197 -15z"/>
<path d="M19583 13003 c-8 -3 -13 -23 -13 -48 0 -72 -12 -91 -74 -114 -86 -32
-743 -231 -811 -246 -72 -15 -86 -9 -120 49 -21 36 -29 42 -50 38 -14 -2 -28
-8 -30 -12 -3 -5 15 -62 39 -127 24 -65 53 -158 65 -208 43 -175 38 -164 69
-156 25 7 27 11 30 70 l3 63 52 23 c91 42 808 257 862 258 49 2 50 1 80 -45
33 -52 33 -52 69 -39 l25 10 -50 142 c-27 77 -61 188 -75 245 -27 105 -33 113
-71 97z"/>
<path d="M328 12847 c-21 -83 -51 -188 -68 -232 -40 -105 -40 -107 -8 -116 25
-6 31 -2 64 43 l36 51 46 -6 c44 -5 742 -206 841 -241 66 -24 71 -31 71 -97 0
-54 2 -61 25 -71 16 -7 29 -8 34 -2 5 5 21 63 36 129 15 66 47 174 71 240 44
124 44 135 -1 135 -13 0 -30 -16 -48 -45 -44 -69 -19 -73 -612 102 -159 46
-311 94 -337 105 l-48 20 0 63 c0 48 -4 64 -16 69 -44 17 -48 11 -86 -147z"/>
<path d="M615 9935 c-140 -49 -112 -247 36 -262 104 -10 181 106 131 197 -33
61 -102 87 -167 65z"/>
<path d="M19295 9935 c-100 -35 -125 -161 -44 -229 58 -49 145 -43 193 15 90
107 -16 260 -149 214z"/>
<path d="M1417 7456 c-126 -53 -158 -101 -239 -367 -82 -265 -110 -302 -238
-303 -52 -1 -71 3 -96 21 -40 29 -66 84 -72 151 -6 73 38 164 113 229 53 47
64 69 49 107 -12 30 -49 19 -226 -69 l-77 -38 5 -51 c28 -278 88 -424 210
-514 129 -96 268 -93 410 9 59 43 92 113 144 304 65 242 113 315 216 331 119
18 201 -119 145 -242 -23 -51 -72 -107 -126 -144 -35 -24 -42 -34 -38 -54 10
-49 24 -49 134 -7 57 21 121 46 142 55 l37 16 -6 73 c-16 207 -56 318 -143
404 -105 104 -232 137 -344 89z"/>
<path d="M18282 7239 c-115 -57 -176 -153 -267 -419 -37 -107 -81 -229 -97
-270 -28 -70 -28 -75 -12 -87 28 -21 37 -16 77 37 44 58 51 60 157 26 106 -33
738 -251 781 -270 54 -23 63 -38 55 -101 -6 -53 -5 -56 21 -66 14 -5 29 -6 33
-2 4 4 23 64 43 133 20 69 59 181 86 250 l49 125 -26 12 c-15 6 -30 9 -34 7
-3 -2 -20 -29 -37 -59 -29 -51 -34 -55 -68 -55 -37 0 -356 103 -380 122 -35
29 14 52 218 102 257 63 334 100 408 199 43 56 104 181 115 233 6 29 4 33 -23
42 -29 10 -32 9 -45 -17 -21 -39 -77 -86 -145 -121 -59 -29 -285 -98 -395
-120 -65 -13 -76 -8 -76 41 0 15 -16 58 -35 97 -84 167 -254 236 -403 161z
m163 -259 c40 -15 76 -39 108 -70 41 -41 47 -52 47 -89 0 -58 -36 -140 -65
-147 -25 -6 -258 71 -345 114 -52 26 -55 29 -52 62 4 55 42 121 82 143 45 24
141 19 225 -13z"/>
<path d="M1659 6345 c-187 -46 -345 -172 -426 -340 -110 -231 -71 -466 107
-646 115 -116 250 -171 420 -171 308 1 566 220 618 523 15 88 15 102 -1 180
-45 227 -200 392 -423 449 -90 23 -211 25 -295 5z m460 -221 c86 -34 151 -154
137 -253 -9 -69 -44 -130 -110 -197 -137 -136 -337 -237 -525 -265 -144 -21
-238 18 -287 117 -22 46 -26 64 -22 121 5 89 34 147 112 227 92 93 211 169
359 227 125 50 248 58 336 23z"/>
<path d="M17575 5818 c-77 -150 -166 -317 -199 -372 -55 -93 -57 -100 -40
-113 26 -19 31 -17 81 27 25 22 51 40 58 40 6 0 52 -20 101 -43 121 -60 690
-364 737 -395 41 -27 45 -47 26 -115 -9 -33 -8 -41 8 -53 10 -7 23 -14 29 -14
6 0 40 62 77 138 37 75 129 250 205 387 l138 250 -110 115 c-60 63 -114 115
-120 115 -6 0 -17 -11 -24 -25 -13 -23 -12 -29 18 -78 71 -113 69 -209 -6
-360 -26 -51 -58 -101 -71 -112 -22 -17 -28 -17 -63 -5 -70 25 -330 168 -330
182 0 22 76 167 106 203 27 32 29 32 91 26 61 -6 64 -6 75 19 6 14 9 27 7 29
-17 14 -292 156 -304 156 -8 0 -18 -12 -21 -26 -6 -22 0 -32 37 -64 l44 -38
-59 -114 c-32 -62 -65 -120 -73 -129 -13 -15 -29 -9 -181 73 -92 50 -175 97
-184 106 -26 22 -22 44 21 130 60 119 144 184 258 198 46 6 73 24 73 49 0 11
-220 85 -251 85 -9 0 -71 -111 -154 -272z"/>
<path d="M2701 5253 c-22 -18 -22 -19 -7 -77 11 -40 12 -64 6 -76 -6 -10 -47
-45 -92 -78 -149 -106 -642 -439 -683 -461 -37 -19 -41 -20 -65 -5 -14 9 -37
28 -51 41 -24 22 -29 23 -48 11 -11 -7 -21 -18 -21 -24 0 -6 37 -60 83 -121
45 -61 111 -158 147 -217 36 -58 70 -106 76 -106 5 0 19 6 29 14 18 13 18 15
-3 64 -42 98 -39 102 194 262 l138 94 37 -44 c52 -60 109 -160 109 -190 0 -14
-14 -43 -31 -63 -29 -35 -30 -41 -19 -63 8 -13 17 -24 22 -24 13 0 288 190
288 199 0 4 -6 16 -14 26 -14 19 -15 19 -70 1 -67 -23 -64 -25 -144 92 -96
142 -101 118 40 215 183 126 224 150 245 143 20 -6 98 -107 127 -164 28 -55
32 -157 8 -227 -19 -55 -19 -62 -5 -84 l15 -24 99 99 c54 53 95 102 92 108 -4
6 -71 102 -149 212 -79 111 -182 262 -230 335 -48 74 -90 138 -94 142 -4 4
-17 0 -29 -10z"/>
<path d="M17037 4918 c-29 -40 -111 -154 -182 -253 -72 -99 -160 -218 -197
-264 -38 -47 -68 -89 -68 -95 0 -6 9 -17 20 -24 17 -11 27 -8 71 23 28 19 57
35 63 35 7 0 44 -22 82 -48 94 -65 607 -446 667 -495 54 -44 58 -65 27 -130
l-20 -42 22 -17 c13 -10 26 -17 30 -15 4 1 42 54 86 117 43 63 160 222 259
353 l181 237 -63 86 c-35 46 -76 105 -92 129 -31 50 -42 54 -67 26 -17 -19
-17 -23 9 -86 48 -122 32 -222 -58 -347 -65 -91 -100 -122 -130 -114 -26 6
-327 223 -327 235 0 13 74 124 110 164 49 57 62 61 126 40 54 -17 57 -17 70 2
8 10 14 22 14 26 0 10 -267 209 -280 209 -6 0 -15 -11 -22 -24 -9 -22 -6 -30
25 -67 42 -48 43 -45 -36 -154 -55 -77 -97 -125 -108 -125 -9 0 -268 196 -306
232 -37 36 -37 38 30 135 75 110 155 155 279 157 48 1 60 5 73 23 16 22 14 23
-104 83 -67 33 -123 60 -126 60 -3 0 -29 -33 -58 -72z"/>
<path d="M3333 4207 c-62 -45 -113 -88 -113 -96 0 -8 7 -22 16 -32 15 -16 20
-17 43 -5 80 42 158 40 216 -5 41 -33 105 -118 105 -141 0 -27 -71 -99 -365
-373 -353 -330 -332 -316 -413 -269 l-44 26 -21 -21 -22 -21 117 -118 c65 -64
143 -148 174 -187 57 -70 67 -75 94 -49 12 12 11 20 -8 59 -28 58 -28 71 2
110 32 42 563 538 628 588 28 20 57 37 65 37 22 0 134 -110 149 -147 21 -48
17 -102 -11 -162 -24 -51 -24 -55 -9 -72 10 -11 23 -19 30 -19 11 0 194 208
194 221 0 4 -17 18 -38 33 -91 63 -587 596 -643 691 -12 19 -24 35 -27 35 -4
0 -58 -37 -119 -83z"/>
<path d="M16295 3967 c-60 -62 -133 -131 -162 -152 -57 -44 -62 -54 -35 -78
18 -16 22 -15 73 13 63 35 90 37 133 11 30 -19 411 -410 404 -416 -2 -1 -79 8
-173 21 -93 12 -260 34 -370 49 -110 14 -231 32 -270 41 -38 8 -81 17 -95 19
-21 4 -33 -5 -75 -54 -27 -33 -96 -99 -153 -147 l-102 -88 22 -23 c20 -21 23
-22 42 -8 12 8 41 27 65 42 l44 27 35 -20 c42 -22 599 -595 633 -650 21 -34
21 -41 10 -83 -7 -25 -23 -60 -36 -77 l-24 -31 23 -22 23 -21 85 92 c47 51
122 122 166 158 45 36 81 70 82 76 0 6 -8 18 -18 27 -17 16 -23 15 -90 -20
-65 -33 -73 -35 -102 -23 -18 7 -144 130 -301 293 -148 154 -268 281 -266 283
1 1 259 -31 572 -72 314 -41 585 -74 603 -74 69 0 96 44 47 76 -27 18 -620
632 -667 692 -26 33 -29 43 -26 89 3 37 13 62 33 89 29 38 27 66 -6 71 -8 1
-63 -48 -124 -110z"/>
<path d="M4298 3333 c-16 -27 -16 -28 18 -65 30 -34 34 -44 34 -96 0 -31 -38
-315 -83 -630 -89 -614 -88 -602 -31 -588 14 4 97 41 183 83 86 41 179 85 207
98 l50 23 -33 -241 c-19 -132 -31 -247 -28 -255 4 -10 15 -13 38 -9 17 3 244
119 502 258 259 139 498 263 533 276 74 27 104 28 163 8 43 -15 45 -15 62 6
22 27 22 27 -93 99 -47 29 -122 82 -167 117 -45 34 -85 63 -90 63 -4 0 -14 -9
-21 -21 -12 -18 -9 -25 27 -65 45 -48 51 -72 22 -98 -11 -10 -169 -98 -353
-197 -389 -209 -351 -212 -315 30 l22 154 185 95 c207 106 259 120 335 88 39
-17 40 -16 57 5 10 11 18 24 18 28 0 3 -39 30 -88 60 -48 30 -127 85 -176 123
-50 37 -95 68 -101 68 -5 0 -16 -9 -23 -21 -12 -18 -9 -24 26 -60 48 -48 57
-74 32 -99 -17 -17 -220 -130 -234 -130 -14 0 28 266 46 287 13 15 52 17 78 3
15 -8 22 -5 34 12 9 12 16 26 16 29 0 4 -42 33 -92 65 -51 32 -139 93 -195
136 -56 43 -107 78 -113 78 -6 0 -15 -11 -22 -24 -9 -21 -7 -29 15 -56 15 -17
29 -46 33 -64 6 -32 -59 -542 -74 -578 -8 -19 -218 -125 -228 -116 -6 7 88
680 107 761 13 58 43 78 85 58 28 -13 39 -9 54 20 10 17 -1 26 -92 85 -57 37
-149 102 -205 145 -56 44 -104 79 -105 79 -2 0 -11 -12 -20 -27z"/>
<path d="M15104 2890 c-71 -55 -164 -122 -206 -148 -43 -26 -78 -50 -78 -53 0
-4 8 -17 18 -28 16 -21 19 -21 54 -7 57 24 85 20 119 -16 32 -35 483 -660 518
-718 28 -47 27 -60 -14 -113 -31 -41 -34 -49 -23 -67 7 -11 19 -20 26 -20 7 0
50 31 95 69 81 68 188 142 280 195 47 28 49 34 20 67 -12 14 -18 14 -65 -2
-59 -20 -71 -16 -115 34 -79 91 -533 735 -533 757 0 4 16 28 36 55 32 41 35
50 25 71 -6 13 -15 24 -19 24 -5 0 -67 -45 -138 -100z"/>
<path d="M14313 2366 c-57 -19 -156 -59 -220 -91 -97 -47 -130 -70 -185 -125
-110 -110 -168 -256 -169 -425 -3 -344 270 -624 606 -625 118 0 229 39 365
129 114 75 250 225 250 276 0 10 -7 26 -15 35 -24 27 -125 231 -125 253 0 10
18 37 39 59 36 35 39 42 29 64 -6 13 -15 24 -20 24 -5 0 -67 -33 -137 -73 -70
-40 -171 -93 -224 -117 -53 -25 -97 -48 -97 -51 0 -4 8 -17 18 -29 15 -18 21
-20 45 -11 55 21 94 14 121 -21 37 -50 126 -222 126 -245 0 -34 -37 -70 -103
-102 -82 -40 -139 -47 -216 -27 -85 22 -135 50 -199 110 -73 68 -132 153 -186
267 -116 241 -100 402 48 504 63 43 159 75 227 75 61 0 147 -32 205 -76 43
-33 45 -34 79 -20 19 8 35 20 35 27 0 12 -120 190 -153 227 -11 12 -25 22 -31
21 -6 0 -57 -15 -113 -33z"/>
<path d="M6603 1868 c-26 -24 -203 -189 -393 -368 -460 -434 -417 -400 -507
-400 -69 0 -74 -2 -85 -25 -6 -14 -9 -27 -7 -29 2 -2 42 -16 89 -31 47 -15
133 -52 193 -81 l107 -54 10 25 c14 37 14 39 -23 58 -18 10 -41 32 -51 48 -17
28 -17 31 3 62 11 17 56 65 101 105 l81 74 62 -25 c34 -14 110 -46 170 -72
l107 -47 0 -138 c0 -113 -3 -142 -16 -154 -17 -18 -54 -20 -101 -7 -29 8 -32
7 -44 -20 -6 -16 -10 -31 -8 -33 2 -2 61 -24 131 -50 70 -25 177 -70 237 -101
61 -30 115 -55 121 -55 6 0 15 12 21 27 8 22 7 28 -7 36 -10 6 -33 24 -52 42
l-35 32 12 594 12 594 -22 18 c-32 26 -55 21 -106 -25z m-140 -629 c-7 -7
-227 81 -242 97 -3 3 50 60 119 125 l125 119 3 -167 c1 -92 -1 -170 -5 -174z"/>
<path d="M13167 1808 c-54 -21 -148 -52 -209 -68 -61 -16 -113 -31 -116 -34
-3 -3 0 -17 6 -30 10 -23 16 -25 81 -24 106 2 105 4 207 -311 47 -146 88 -272
90 -280 3 -9 -4 -7 -23 6 -28 18 -176 116 -439 289 -78 51 -181 123 -230 159
l-88 67 -85 -35 c-48 -19 -133 -47 -191 -61 -58 -15 -110 -29 -117 -31 -9 -3
-10 -12 -2 -34 10 -27 14 -30 42 -23 18 4 54 7 82 7 47 0 50 -2 72 -41 31 -56
263 -778 270 -840 5 -47 3 -53 -28 -89 -19 -21 -48 -44 -66 -51 -30 -13 -31
-16 -22 -44 6 -16 14 -30 18 -30 4 0 45 16 91 36 47 20 143 51 214 69 70 19
131 36 134 40 3 3 2 17 -4 32 -9 26 -11 26 -89 24 -86 -2 -96 2 -125 58 -14
28 -240 724 -236 728 2 2 158 -99 347 -224 573 -377 661 -433 683 -433 55 1
55 -2 -77 401 -216 658 -208 624 -157 683 17 18 46 41 65 50 35 17 41 29 29
60 -8 21 -13 20 -127 -26z"/>
<path d="M7466 1568 c-3 -13 -6 -26 -6 -29 0 -3 25 -23 55 -43 65 -43 65 -43
29 -199 -61 -267 -185 -761 -196 -785 -12 -24 -20 -28 -78 -32 -64 -5 -65 -5
-68 -36 l-3 -32 118 -21 c65 -12 182 -40 261 -62 79 -23 145 -39 147 -37 2 2
6 15 10 30 6 25 3 28 -43 48 -81 35 -88 47 -73 133 6 40 26 130 44 202 48 195
62 188 159 -82 71 -201 108 -273 168 -333 51 -52 165 -111 259 -135 74 -19 87
-16 93 20 5 22 0 29 -31 45 -70 35 -134 122 -191 260 -33 79 -110 297 -110
310 0 5 17 11 38 15 50 8 127 53 176 101 87 87 120 233 75 329 -54 115 -183
194 -399 245 -74 17 -199 49 -278 71 -78 21 -144 39 -146 39 -2 0 -6 -10 -10
-22z m508 -216 c52 -31 76 -76 76 -146 0 -155 -81 -296 -170 -296 -46 0 -129
30 -140 50 -16 31 68 366 102 408 16 18 88 9 132 -16z"/>
<path d="M11325 1320 c-159 -27 -343 -54 -407 -61 -102 -10 -118 -14 -118 -30
0 -31 12 -49 32 -49 10 0 39 -5 63 -11 35 -9 46 -17 54 -42 6 -17 36 -197 66
-401 72 -491 77 -534 65 -556 -5 -10 -32 -26 -60 -36 -43 -16 -50 -22 -50 -45
0 -15 3 -30 8 -32 4 -3 63 6 131 19 68 13 260 42 425 64 166 22 307 42 314 45
6 2 12 17 12 33 0 16 9 78 20 138 27 150 27 154 -10 154 -27 0 -33 -6 -56 -57
-37 -85 -63 -120 -115 -153 -58 -38 -182 -70 -269 -70 -64 0 -68 1 -78 28 -17
44 -20 60 -42 207 -11 77 -23 150 -25 162 -6 26 22 36 151 54 110 16 128 10
159 -51 22 -43 29 -50 55 -50 37 0 37 1 7 200 l-22 145 -30 0 c-28 0 -30 -2
-38 -55 -4 -30 -11 -58 -15 -62 -9 -9 -171 -36 -237 -40 l-50 -3 -30 209 c-28
201 -29 209 -11 222 27 19 121 37 196 38 81 0 160 -34 218 -93 38 -40 74 -52
87 -30 11 18 -78 259 -95 258 -8 0 -145 -22 -305 -49z"/>
<path d="M8900 1247 c0 -31 4 -36 28 -42 15 -3 42 -14 60 -25 32 -20 32 -20
32 -102 0 -86 -55 -818 -66 -876 -7 -38 -22 -47 -87 -57 -38 -6 -48 -12 -53
-31 -10 -39 2 -44 107 -44 84 0 552 -36 724 -56 l50 -5 58 143 c32 79 60 148
63 155 3 6 -8 14 -27 18 -28 6 -36 4 -49 -15 -35 -52 -107 -123 -141 -141 -56
-28 -145 -39 -246 -29 -108 10 -121 15 -130 48 -6 24 0 166 13 326 l7 79 116
-5 c141 -7 167 -17 182 -72 16 -60 23 -71 53 -74 14 -2 26 -2 26 0 0 2 7 80
14 173 8 94 13 171 11 173 -1 2 -15 4 -31 5 -27 2 -30 -2 -47 -55 -16 -52 -21
-58 -45 -58 -60 0 -257 21 -263 28 -8 8 17 351 29 397 10 37 37 44 152 34 122
-9 201 -55 259 -149 26 -42 36 -50 60 -50 28 0 29 2 25 33 -3 17 -11 79 -17
137 l-12 105 -275 17 c-265 16 -464 32 -542 45 -38 6 -38 5 -38 -30z"/>
</g>
</svg>
